<?xml version="1.0" encoding="UTF-8" standalone="no"?>
<svg
   width="16"
   height="16"
   fill="#9b9b9b"
   class="bi bi-check-square"
   viewBox="0 0 16 16"
   version="1.1"
   id="svg20"
   sodipodi:docname="check-square-checked.svg"
   inkscape:version="1.2 (dc2aedaf03, 2022-05-15)"
   xmlns:inkscape="http://www.inkscape.org/namespaces/inkscape"
   xmlns:sodipodi="http://sodipodi.sourceforge.net/DTD/sodipodi-0.dtd"
   xmlns="http://www.w3.org/2000/svg"
   xmlns:svg="http://www.w3.org/2000/svg">
  <path
     d="M14 1a1 1 0 0 1 1 1v12a1 1 0 0 1-1 1H2a1 1 0 0 1-1-1V2a1 1 0 0 1 1-1h12zM2 0a2 2 0 0 0-2 2v12a2 2 0 0 0 2 2h12a2 2 0 0 0 2-2V2a2 2 0 0 0-2-2H2z"
     id="path16" />
  <rect
     id="rect508"
     width="13.311787"
     height="2"
     x="4.6581407"
     y="-0.99999994"
     ry="1"
     rx="1"
     transform="rotate(45)"
     style="stroke-width:0.784383" />
  <rect
     id="rect518"
     width="13.311787"
     height="2"
     x="-6.6558938"
     y="-12.314034"
     ry="1"
     rx="1"
     style="stroke-width:0.784383"
     transform="rotate(135)" />
</svg>
