<?xml version="1.0" encoding="UTF-8" standalone="no"?>
<!-- Created with Inkscape (http://www.inkscape.org/) -->

<svg
   width="64mm"
   height="64mm"
   viewBox="0 0 64 64"
   version="1.1"
   id="svg5"
   inkscape:version="1.2 (dc2aedaf03, 2022-05-15)"
   sodipodi:docname="openhsl.svg"
   xmlns:inkscape="http://www.inkscape.org/namespaces/inkscape"
   xmlns:sodipodi="http://sodipodi.sourceforge.net/DTD/sodipodi-0.dtd"
   xmlns:xlink="http://www.w3.org/1999/xlink"
   xmlns="http://www.w3.org/2000/svg"
   xmlns:svg="http://www.w3.org/2000/svg">
  <sodipodi:namedview
     id="namedview7"
     pagecolor="#ffffff"
     bordercolor="#666666"
     borderopacity="1.0"
     inkscape:showpageshadow="2"
     inkscape:pageopacity="0.0"
     inkscape:pagecheckerboard="0"
     inkscape:deskcolor="#d1d1d1"
     inkscape:document-units="mm"
     showgrid="false"
     inkscape:zoom="2"
     inkscape:cx="228.75"
     inkscape:cy="143"
     inkscape:window-width="2560"
     inkscape:window-height="1369"
     inkscape:window-x="-8"
     inkscape:window-y="-8"
     inkscape:window-maximized="1"
     inkscape:current-layer="layer1"
     showguides="false" />
  <defs
     id="defs2">
    <rect
       x="121.32394"
       y="539.94617"
       width="238.27583"
       height="184.71843"
       id="rect512" />
    <linearGradient
       inkscape:collect="always"
       id="linearGradient285">
      <stop
         style="stop-color:#000000;stop-opacity:1"
         offset="0"
         id="stop281" />
      <stop
         style="stop-color:#4d4d4d;stop-opacity:1"
         offset="0.25"
         id="stop402" />
      <stop
         style="stop-color:#808080;stop-opacity:1"
         offset="0.5"
         id="stop353" />
      <stop
         style="stop-color:#4d4d4d;stop-opacity:1"
         offset="0.75"
         id="stop404" />
      <stop
         style="stop-color:#000000;stop-opacity:1"
         offset="1"
         id="stop283" />
    </linearGradient>
    <linearGradient
       inkscape:collect="always"
       xlink:href="#linearGradient285"
       id="linearGradient287"
       x1="19.375854"
       y1="67.381691"
       x2="82.998055"
       y2="67.381691"
       gradientUnits="userSpaceOnUse"
       spreadMethod="pad"
       gradientTransform="translate(-19.08666,-35.281402)" />
  </defs>
  <g
     inkscape:label="Layer 1"
     inkscape:groupmode="layer"
     id="layer1">
    <rect
       id="rect121"
       width="64"
       height="64"
       x="-2.1316281e-15"
       y="-1.7763568e-15"
       style="fill:url(#linearGradient287);fill-opacity:1;stroke-width:0.264583"
       rx="2"
       ry="2"
       inkscape:label="rect121" />
    <g
       aria-label="HSL"
       transform="matrix(1.0666673,0,0,1.0666673,-2.1339716,-2.8444776)"
       id="text808"
       style="font-size:28.9538px;line-height:1.25;letter-spacing:0px;word-spacing:0px;white-space:pre;inline-size:74.6158;display:inline;fill:#ffffff;stroke-width:0.301602"
       inkscape:label="text746">
      <path
         d="M 20.87429,55.362606 H 15.445452 V 46.088342 H 7.4294342 v 9.274264 H 2.0005967 V 34.311723 h 5.4288375 v 7.704991 h 8.0160178 v -7.704991 h 5.428838 z"
         style="font-weight:bold;-inkscape-font-specification:'sans-serif Bold'"
         id="path973" />
      <path
         d="m 43.098593,48.74621 q 0,3.110272 -2.643731,5.06126 -2.629593,1.936851 -7.153625,1.936851 -2.615455,0 -4.566444,-0.452403 -1.936851,-0.466541 -3.633362,-1.173421 v -5.047122 h 0.593779 q 1.682374,1.343072 3.760601,2.064089 2.092364,0.721018 4.015077,0.721018 0.494816,0 1.300659,-0.08483 0.805844,-0.08483 1.314797,-0.282752 0.622054,-0.254476 1.017907,-0.636192 0.40999,-0.381715 0.40999,-1.131007 0,-0.692743 -0.593779,-1.187559 -0.579641,-0.508953 -1.710649,-0.777568 -1.187558,-0.282751 -2.516492,-0.523091 -1.314797,-0.254476 -2.47408,-0.636192 -2.657868,-0.862393 -3.831289,-2.332703 -1.159283,-1.484448 -1.159283,-3.675776 0,-2.94062 2.629593,-4.792645 2.643731,-1.866163 6.786047,-1.866163 2.078227,0 4.099903,0.40999 2.035814,0.395853 3.520262,1.00377 v 4.849196 h -0.579641 q -1.272384,-1.017907 -3.124409,-1.696512 -1.837888,-0.692742 -3.760601,-0.692742 -0.678605,0 -1.35721,0.09896 -0.664467,0.08483 -1.286521,0.339302 -0.551366,0.212064 -0.947219,0.65033 -0.395853,0.424128 -0.395853,0.975494 0,0.834118 0.636192,1.286521 0.636192,0.438266 2.403392,0.805843 1.159283,0.24034 2.219602,0.466541 1.074458,0.226202 2.304429,0.622054 2.417529,0.791706 3.562675,2.163053 1.159283,1.357209 1.159283,3.534399 z"
         style="font-weight:bold;-inkscape-font-specification:'sans-serif Bold'"
         id="path975" />
      <path
         d="M 62.000562,55.362606 H 46.816782 V 34.311723 h 5.428837 v 16.979255 h 9.754943 z"
         style="font-weight:bold;-inkscape-font-specification:'sans-serif Bold'"
         id="path977" />
    </g>
    <g
       aria-label="open"
       transform="matrix(1.0666663,0,0,1.0666663,-2.1330854,-1.4222242)"
       id="text746"
       style="font-size:22.7219px;line-height:1.25;letter-spacing:0px;word-spacing:0px;white-space:pre;inline-size:63.6623;display:inline;fill:#ffffff;stroke-width:0.236686"
       inkscape:label="text746">
      <path
         d="m 15.646223,14.879205 q 0,3.073226 -1.797338,4.848374 -1.786243,1.764054 -5.0258887,1.764054 -3.2396461,0 -5.0369839,-1.764054 -1.7862432,-1.775148 -1.7862432,-4.848374 0,-3.095416 1.7973378,-4.859469 1.8084326,-1.7640542 5.0258893,-1.7640542 3.2618357,0 5.0369837,1.7751482 1.786243,1.775149 1.786243,4.848375 z m -4.914942,3.028847 q 0.388314,-0.477071 0.576923,-1.142752 0.199704,-0.676775 0.199704,-1.863906 0,-1.098373 -0.199704,-1.841717 -0.199704,-0.743343 -0.554734,-1.18713 -0.355029,-0.454882 -0.8542899,-0.643491 -0.4992606,-0.18861 -1.0761838,-0.18861 -0.5769233,0 -1.0318051,0.155326 -0.4437871,0.155325 -0.8542902,0.621302 -0.3661244,0.432692 -0.588018,1.18713 -0.2107989,0.754438 -0.2107989,1.89719 0,1.02071 0.1886096,1.775149 0.1886095,0.743343 0.5547339,1.198225 0.3550297,0.432692 0.8431955,0.632396 0.4992605,0.199705 1.1316572,0.199705 0.5436392,0 1.0318051,-0.177515 0.4992606,-0.18861 0.8431956,-0.621302 z"
         style="font-weight:bold;-inkscape-font-specification:'sans-serif Bold'"
         id="path1017" />
      <path
         d="m 31.511613,14.70169 q 0,1.54216 -0.477071,2.806953 -0.465977,1.264794 -1.23151,2.0858 -0.798816,0.865385 -1.808432,1.309172 -1.009616,0.443787 -2.163462,0.443787 -1.065089,0 -1.808433,-0.232988 -0.743343,-0.221894 -1.519971,-0.632397 v 5.19231 H 18.50865 V 8.6439956 h 3.994084 v 1.2980773 q 0.920859,-0.7322488 1.875001,-1.1871306 0.965237,-0.4548818 2.218935,-0.4548818 2.329883,0 3.616866,1.7085805 1.298077,1.70858 1.298077,4.693049 z m -4.116126,0.07766 q 0,-1.819528 -0.621302,-2.640534 -0.621302,-0.821006 -1.963758,-0.821006 -0.565828,0 -1.164941,0.177515 -0.599113,0.16642 -1.142752,0.488166 v 6.268493 q 0.399409,0.155325 0.85429,0.199704 0.454882,0.04438 0.898669,0.04438 1.586539,0 2.363167,-0.920858 0.776627,-0.931953 0.776627,-2.79586 z"
         style="font-weight:bold;-inkscape-font-specification:'sans-serif Bold'"
         id="path1019" />
      <path
         d="m 46.666943,15.611453 h -9.142015 q 0.08876,1.464498 1.109468,2.241125 1.031805,0.776628 3.028847,0.776628 1.264794,0 2.451924,-0.454882 1.187131,-0.454882 1.875001,-0.976332 h 0.443787 v 3.206362 q -1.353551,0.54364 -2.551776,0.787723 -1.198225,0.244083 -2.651628,0.244083 -3.750001,0 -5.747044,-1.686392 -1.997042,-1.686391 -1.997042,-4.803995 0,-3.084321 1.886096,-4.881659 1.89719,-1.8084322 5.192309,-1.8084322 3.039942,0 4.571008,1.5421603 1.531065,1.5310659 1.531065,4.4156819 z m -3.971895,-2.340977 q -0.03328,-1.253698 -0.621302,-1.886095 -0.588018,-0.632397 -1.830622,-0.632397 -1.153846,0 -1.89719,0.599113 -0.743343,0.599113 -0.8321,1.919379 z"
         style="font-weight:bold;-inkscape-font-specification:'sans-serif Bold'"
         id="path1021" />
      <path
         d="m 61.999788,21.103319 h -4.016273 v -6.179736 q 0,-0.754438 -0.07766,-1.497781 -0.07766,-0.754438 -0.266272,-1.109468 -0.221894,-0.410503 -0.654586,-0.599113 -0.421598,-0.188609 -1.187131,-0.188609 -0.543639,0 -1.109468,0.177515 -0.554734,0.177515 -1.20932,0.565828 v 8.831364 H 49.484991 V 8.6439956 h 3.994084 v 1.3757404 q 1.06509,-0.8321012 2.041421,-1.2758883 0.987427,-0.4437872 2.185652,-0.4437872 2.019231,0 3.150888,1.1760359 1.142752,1.1760356 1.142752,3.5170126 z"
         style="font-weight:bold;-inkscape-font-specification:'sans-serif Bold'"
         id="path1023" />
    </g>
  </g>
</svg>
