<?xml version="1.0" encoding="UTF-8" standalone="no"?>
<svg
   width="16"
   height="16"
   fill="currentColor"
   class="bi bi-table"
   viewBox="0 0 16 16"
   version="1.1"
   id="svg4"
   sodipodi:docname="ud-table.svg"
   inkscape:version="1.2 (dc2aedaf03, 2022-05-15)"
   xmlns:inkscape="http://www.inkscape.org/namespaces/inkscape"
   xmlns:sodipodi="http://sodipodi.sourceforge.net/DTD/sodipodi-0.dtd"
   xmlns="http://www.w3.org/2000/svg"
   xmlns:svg="http://www.w3.org/2000/svg">
  <defs
     id="defs8" />
  <sodipodi:namedview
     id="namedview6"
     pagecolor="#ffffff"
     bordercolor="#666666"
     borderopacity="1.0"
     inkscape:showpageshadow="2"
     inkscape:pageopacity="0.0"
     inkscape:pagecheckerboard="0"
     inkscape:deskcolor="#d1d1d1"
     showgrid="false"
     inkscape:zoom="64.1875"
     inkscape:cx="7.4079844"
     inkscape:cy="7.9922103"
     inkscape:window-width="2560"
     inkscape:window-height="1369"
     inkscape:window-x="-8"
     inkscape:window-y="-8"
     inkscape:window-maximized="1"
     inkscape:current-layer="svg4" />
  <path
     d="M 0,2 A 2,2 0 0 1 2,0 h 12 a 2,2 0 0 1 2,2 v 12 a 2,2 0 0 1 -2,2 H 2 A 2,2 0 0 1 0,14 Z m 15,2 h -4 v 3 h 4 z m 0,4 h -4 v 3 h 4 z m 0,4 h -4 v 3 h 3 a 1,1 0 0 0 1,-1 z m -5,3 V 12 H 6 v 3 z M 5,15 V 12 H 1 v 2 a 1,1 0 0 0 1,1 z M 1,11 H 5 V 8 H 1 Z M 1,7 H 5 V 4 H 1 Z M 6,4 v 3 h 4 V 4 Z m 4,4 H 6 v 3 h 4 z"
     id="path2"
     style="display:inline;fill:#9b9b9b;fill-opacity:1" />
</svg>
